{
	"asset":{
		"generator":"Khronos glTF Blender I/O v4.2.70",
		"version":"2.0"
	},
	"scene":0,
	"scenes":[
		{
			"name":"Scene",
			"nodes":[
				0
			]
		}
	],
	"nodes":[
		{
			"mesh":0,
			"name":"Plane",
			"scale":[
				1.4822263717651367,
				1,
				1
			]
		}
	],
	"animations":[
		{
			"channels":[
				{
					"sampler":0,
					"target":{
						"node":0,
						"path":"translation"
					}
				},
				{
					"sampler":1,
					"target":{
						"node":0,
						"path":"rotation"
					}
				},
				{
					"sampler":2,
					"target":{
						"node":0,
						"path":"scale"
					}
				}
			],
			"name":"PlaneAction",
			"samplers":[
				{
					"input":12,
					"interpolation":"LINEAR",
					"output":13
				},
				{
					"input":12,
					"interpolation":"LINEAR",
					"output":14
				},
				{
					"input":12,
					"interpolation":"LINEAR",
					"output":15
				}
			]
		}
	],
	"materials":[
		{
			"doubleSided":true,
			"name":"Material.001",
			"pbrMetallicRoughness":{
				"baseColorFactor":[
					0.008568069897592068,
					0.008568133227527142,
					0.008568129502236843,
					1
				],
				"metallicFactor":0,
				"roughnessFactor":0.5
			}
		},
		{
			"doubleSided":true,
			"name":"Material.002",
			"pbrMetallicRoughness":{
				"baseColorFactor":[
					0.008568069897592068,
					0.008568133227527142,
					0.008568129502236843,
					1
				],
				"metallicFactor":0,
				"roughnessFactor":0.5
			}
		},
		{
			"doubleSided":true,
			"name":"Material.003",
			"pbrMetallicRoughness":{
				"baseColorFactor":[
					0.006232270505279303,
					0.22064140439033508,
					0.8033120632171631,
					1
				],
				"metallicFactor":0,
				"roughnessFactor":0.5
			}
		}
	],
	"meshes":[
		{
			"name":"Plane",
			"primitives":[
				{
					"attributes":{
						"POSITION":0,
						"NORMAL":1,
						"TEXCOORD_0":2
					},
					"indices":3,
					"material":0
				},
				{
					"attributes":{
						"POSITION":4,
						"NORMAL":5,
						"TEXCOORD_0":6
					},
					"indices":7,
					"material":1
				},
				{
					"attributes":{
						"POSITION":8,
						"NORMAL":9,
						"TEXCOORD_0":10
					},
					"indices":11,
					"material":2
				}
			]
		}
	],
	"accessors":[
		{
			"bufferView":0,
			"componentType":5126,
			"count":28,
			"max":[
				2.104173183441162,
				0.3578900098800659,
				1
			],
			"min":[
				-1,
				0,
				-1
			],
			"type":"VEC3"
		},
		{
			"bufferView":1,
			"componentType":5126,
			"count":28,
			"type":"VEC3"
		},
		{
			"bufferView":2,
			"componentType":5126,
			"count":28,
			"type":"VEC2"
		},
		{
			"bufferView":3,
			"componentType":5123,
			"count":108,
			"type":"SCALAR"
		},
		{
			"bufferView":4,
			"componentType":5126,
			"count":2770,
			"max":[
				1.9942774772644043,
				0.6446685791015625,
				0.8978770971298218
			],
			"min":[
				-0.9030227661132812,
				0.10559514164924622,
				-0.9198026657104492
			],
			"type":"VEC3"
		},
		{
			"bufferView":5,
			"componentType":5126,
			"count":2770,
			"type":"VEC3"
		},
		{
			"bufferView":6,
			"componentType":5126,
			"count":2770,
			"type":"VEC2"
		},
		{
			"bufferView":7,
			"componentType":5123,
			"count":13860,
			"type":"SCALAR"
		},
		{
			"bufferView":8,
			"componentType":5126,
			"count":554,
			"max":[
				1.9938774108886719,
				0.6446685791015625,
				0.8978770971298218
			],
			"min":[
				-0.9030227661132812,
				0.10559514164924622,
				-0.9198026657104492
			],
			"type":"VEC3"
		},
		{
			"bufferView":9,
			"componentType":5126,
			"count":554,
			"type":"VEC3"
		},
		{
			"bufferView":10,
			"componentType":5126,
			"count":554,
			"type":"VEC2"
		},
		{
			"bufferView":11,
			"componentType":5123,
			"count":2772,
			"type":"SCALAR"
		},
		{
			"bufferView":12,
			"componentType":5126,
			"count":1,
			"max":[
				0.041666666666666664
			],
			"min":[
				0.041666666666666664
			],
			"type":"SCALAR"
		},
		{
			"bufferView":13,
			"componentType":5126,
			"count":1,
			"type":"VEC3"
		},
		{
			"bufferView":14,
			"componentType":5126,
			"count":1,
			"type":"VEC4"
		},
		{
			"bufferView":15,
			"componentType":5126,
			"count":1,
			"type":"VEC3"
		}
	],
	"bufferViews":[
		{
			"buffer":0,
			"byteLength":336,
			"byteOffset":0,
			"target":34962
		},
		{
			"buffer":0,
			"byteLength":336,
			"byteOffset":336,
			"target":34962
		},
		{
			"buffer":0,
			"byteLength":224,
			"byteOffset":672,
			"target":34962
		},
		{
			"buffer":0,
			"byteLength":216,
			"byteOffset":896,
			"target":34963
		},
		{
			"buffer":0,
			"byteLength":33240,
			"byteOffset":1112,
			"target":34962
		},
		{
			"buffer":0,
			"byteLength":33240,
			"byteOffset":34352,
			"target":34962
		},
		{
			"buffer":0,
			"byteLength":22160,
			"byteOffset":67592,
			"target":34962
		},
		{
			"buffer":0,
			"byteLength":27720,
			"byteOffset":89752,
			"target":34963
		},
		{
			"buffer":0,
			"byteLength":6648,
			"byteOffset":117472,
			"target":34962
		},
		{
			"buffer":0,
			"byteLength":6648,
			"byteOffset":124120,
			"target":34962
		},
		{
			"buffer":0,
			"byteLength":4432,
			"byteOffset":130768,
			"target":34962
		},
		{
			"buffer":0,
			"byteLength":5544,
			"byteOffset":135200,
			"target":34963
		},
		{
			"buffer":0,
			"byteLength":4,
			"byteOffset":140744
		},
		{
			"buffer":0,
			"byteLength":12,
			"byteOffset":140748
		},
		{
			"buffer":0,
			"byteLength":16,
			"byteOffset":140760
		},
		{
			"buffer":0,
			"byteLength":12,
			"byteOffset":140776
		}
	],
	"buffers":[
		{
			"byteLength":140788,
			"uri":"SmallKeyborad.bin"
		}
	]
}
